<mxfile host="app.diagrams.net" modified="2023-11-07T14:10:32.486Z" agent="Mozilla/5.0 (Windows NT 10.0; Win64; x64; rv:109.0) Gecko/20100101 Firefox/119.0" etag="KF1zI5KETkMfnf2GP1aj" version="22.0.8" type="device">
  <diagram name="Pagina-1" id="QhIyg9cLzyxWErNd6D08">
    <mxGraphModel dx="1122" dy="485" grid="1" gridSize="10" guides="1" tooltips="1" connect="1" arrows="1" fold="1" page="1" pageScale="1" pageWidth="827" pageHeight="1169" math="0" shadow="0">
      <root>
        <mxCell id="0" />
        <mxCell id="1" parent="0" />
        <mxCell id="IhU8ELp4eBL5eciQICFV-17" value="" style="rounded=0;whiteSpace=wrap;html=1;" vertex="1" parent="1">
          <mxGeometry x="138" y="80" width="561" height="430" as="geometry" />
        </mxCell>
        <mxCell id="IhU8ELp4eBL5eciQICFV-1" value="&lt;div&gt;Personal Trainer&lt;/div&gt;" style="shape=umlActor;verticalLabelPosition=bottom;verticalAlign=top;html=1;outlineConnect=0;" vertex="1" parent="1">
          <mxGeometry x="49" y="370" width="30" height="60" as="geometry" />
        </mxCell>
        <mxCell id="IhU8ELp4eBL5eciQICFV-2" value="" style="endArrow=classic;html=1;rounded=0;exitX=0.5;exitY=0.5;exitDx=0;exitDy=0;exitPerimeter=0;entryX=0;entryY=0.5;entryDx=0;entryDy=0;" edge="1" parent="1" source="IhU8ELp4eBL5eciQICFV-1" target="IhU8ELp4eBL5eciQICFV-3">
          <mxGeometry width="50" height="50" relative="1" as="geometry">
            <mxPoint x="159" y="410" as="sourcePoint" />
            <mxPoint x="259" y="400" as="targetPoint" />
          </mxGeometry>
        </mxCell>
        <mxCell id="IhU8ELp4eBL5eciQICFV-4" style="edgeStyle=orthogonalEdgeStyle;rounded=0;orthogonalLoop=1;jettySize=auto;html=1;entryX=0.5;entryY=0.5;entryDx=0;entryDy=0;entryPerimeter=0;" edge="1" parent="1" source="IhU8ELp4eBL5eciQICFV-3" target="IhU8ELp4eBL5eciQICFV-5">
          <mxGeometry relative="1" as="geometry">
            <mxPoint x="619" y="400" as="targetPoint" />
          </mxGeometry>
        </mxCell>
        <mxCell id="IhU8ELp4eBL5eciQICFV-3" value="SatisfyWorkoutRoutineRequest" style="ellipse;whiteSpace=wrap;html=1;" vertex="1" parent="1">
          <mxGeometry x="318.5" y="360" width="200" height="80" as="geometry" />
        </mxCell>
        <mxCell id="IhU8ELp4eBL5eciQICFV-5" value="EmailSystemBoundary" style="shape=umlActor;verticalLabelPosition=bottom;verticalAlign=top;html=1;outlineConnect=0;" vertex="1" parent="1">
          <mxGeometry x="749" y="370" width="30" height="60" as="geometry" />
        </mxCell>
        <mxCell id="IhU8ELp4eBL5eciQICFV-10" value="" style="endArrow=classic;html=1;rounded=0;exitX=0;exitY=0;exitDx=0;exitDy=0;entryX=0.5;entryY=1;entryDx=0;entryDy=0;" edge="1" parent="1" source="IhU8ELp4eBL5eciQICFV-3" target="IhU8ELp4eBL5eciQICFV-16">
          <mxGeometry width="50" height="50" relative="1" as="geometry">
            <mxPoint x="279" y="310" as="sourcePoint" />
            <mxPoint x="229" y="250" as="targetPoint" />
          </mxGeometry>
        </mxCell>
        <mxCell id="IhU8ELp4eBL5eciQICFV-12" value="Includes" style="edgeLabel;html=1;align=center;verticalAlign=middle;resizable=0;points=[];" vertex="1" connectable="0" parent="IhU8ELp4eBL5eciQICFV-10">
          <mxGeometry x="-0.0508" y="2" relative="1" as="geometry">
            <mxPoint as="offset" />
          </mxGeometry>
        </mxCell>
        <mxCell id="IhU8ELp4eBL5eciQICFV-11" value="" style="endArrow=classic;html=1;rounded=0;exitX=1;exitY=0;exitDx=0;exitDy=0;entryX=0.5;entryY=1;entryDx=0;entryDy=0;" edge="1" parent="1" source="IhU8ELp4eBL5eciQICFV-3" target="IhU8ELp4eBL5eciQICFV-15">
          <mxGeometry width="50" height="50" relative="1" as="geometry">
            <mxPoint x="335" y="371" as="sourcePoint" />
            <mxPoint x="519" y="250" as="targetPoint" />
          </mxGeometry>
        </mxCell>
        <mxCell id="IhU8ELp4eBL5eciQICFV-14" value="Includes" style="edgeLabel;html=1;align=center;verticalAlign=middle;resizable=0;points=[];" vertex="1" connectable="0" parent="IhU8ELp4eBL5eciQICFV-11">
          <mxGeometry x="0.3454" relative="1" as="geometry">
            <mxPoint x="-21" y="25" as="offset" />
          </mxGeometry>
        </mxCell>
        <mxCell id="IhU8ELp4eBL5eciQICFV-15" value="Send Notification" style="ellipse;whiteSpace=wrap;html=1;" vertex="1" parent="1">
          <mxGeometry x="549" y="170" width="120" height="80" as="geometry" />
        </mxCell>
        <mxCell id="IhU8ELp4eBL5eciQICFV-16" value="&lt;div&gt;Login&lt;/div&gt;" style="ellipse;whiteSpace=wrap;html=1;" vertex="1" parent="1">
          <mxGeometry x="169" y="170" width="120" height="80" as="geometry" />
        </mxCell>
        <mxCell id="IhU8ELp4eBL5eciQICFV-18" value="SatisfyWorkoutRoutineRequest" style="edgeLabel;html=1;align=center;verticalAlign=middle;resizable=0;points=[];" vertex="1" connectable="0" parent="1">
          <mxGeometry x="418.4997090253171" y="99.99515336350734" as="geometry" />
        </mxCell>
      </root>
    </mxGraphModel>
  </diagram>
</mxfile>
